<svg width="20" height="22" viewBox="0 0 20 22" fill="none" xmlns="http://www.w3.org/2000/svg">
<path d="M16.6667 11.6749V11.4335C16.6667 10.3668 15.8707 9.50209 14.8889 9.50209H13.3333C12.2288 9.50209 11.3333 10.4749 11.3333 11.6749C11.3333 12.875 12.2288 13.8478 13.3333 13.8478H14.6667C15.7712 13.8478 16.6667 14.8206 16.6667 16.0206C16.6667 17.2206 15.7712 18.1934 14.6667 18.1934H13.3333C12.2288 18.1934 11.3333 17.2206 11.3333 16.0206M8.66666 8.77781V16.0206C8.66666 17.2206 7.77123 18.1934 6.66666 18.1934C5.56209 18.1934 4.66666 17.2206 4.66666 16.0206M0.666656 0.81073H19.3333V21.0906H0.666656V0.81073Z" stroke="#F2C94C"/>
</svg>
