<svg width="22" height="22" viewBox="0 0 22 22" fill="none" xmlns="http://www.w3.org/2000/svg">
<path d="M20.0417 12.2009L19.5462 12.1341C19.5299 12.2553 19.5586 12.3783 19.6268 12.4798L20.0417 12.2009ZM9.79912 1.95739L9.5202 2.37236C9.62107 2.44016 9.74318 2.4689 9.8637 2.4532L9.79912 1.95739ZM1.9574 9.79913L2.45307 9.86478C2.46908 9.74393 2.44038 9.62139 2.37238 9.52021L1.9574 9.79913ZM12.2 20.0426L12.4787 19.6275C12.3776 19.5596 12.2551 19.5309 12.1344 19.5469L12.2 20.0426ZM20.5373 12.2676C20.5923 11.8592 20.6304 11.4367 20.6304 11H19.6304C19.6304 11.379 19.5973 11.7548 19.5462 12.1341L20.5373 12.2676ZM20.6304 11C20.6304 5.68122 16.3179 1.36957 11 1.36957V2.36957C15.7656 2.36957 19.6304 6.23356 19.6304 11H20.6304ZM11 1.36957C10.5629 1.36957 10.1406 1.4087 9.73454 1.46158L9.8637 2.4532C10.2455 2.40347 10.6215 2.36957 11 2.36957V1.36957ZM10.078 1.54242C9.09907 0.884407 7.91899 0.5 6.65217 0.5V1.5C7.71405 1.5 8.70091 1.82168 9.5202 2.37236L10.078 1.54242ZM6.65217 0.5C3.25429 0.5 0.5 3.25429 0.5 6.65217H1.5C1.5 3.80658 3.80658 1.5 6.65217 1.5V0.5ZM0.5 6.65217C0.5 7.9199 0.884442 9.09912 1.54243 10.0781L2.37238 9.52021C1.82167 8.70088 1.5 7.71488 1.5 6.65217H0.5ZM1.46173 9.73348C1.40774 10.1411 1.36957 10.5634 1.36957 11H2.36957C2.36957 10.621 2.40272 10.245 2.45307 9.86478L1.46173 9.73348ZM1.36957 11C1.36957 16.3188 5.68125 20.6304 11 20.6304V19.6304C6.23353 19.6304 2.36957 15.7665 2.36957 11H1.36957ZM11 20.6304C11.4358 20.6304 11.858 20.5923 12.2657 20.5383L12.1344 19.5469C11.7541 19.5973 11.3781 19.6304 11 19.6304V20.6304ZM11.9213 20.4577C12.9009 21.1156 14.0801 21.5 15.3478 21.5V20.5C14.2852 20.5 13.2991 20.1784 12.4787 19.6275L11.9213 20.4577ZM15.3478 21.5C18.7448 21.5 21.5 18.7458 21.5 15.3478H20.5C20.5 18.1934 18.1926 20.5 15.3478 20.5V21.5ZM21.5 15.3478C21.5 14.0798 21.1146 12.9007 20.4567 11.9219L19.6268 12.4798C20.1776 13.2993 20.5 14.2854 20.5 15.3478H21.5ZM10.2857 11.5H11.7143V10.5H10.2857V11.5ZM14.3044 7.91925C13.7819 6.87434 12.7139 6.21429 11.5457 6.21429V7.21429C12.3351 7.21429 13.0569 7.66033 13.4099 8.36646L14.3044 7.91925ZM13.3571 13.1429C13.3571 14.0502 12.6216 14.7857 11.7143 14.7857V15.7857C13.1739 15.7857 14.3571 14.6025 14.3571 13.1429H13.3571ZM11.7143 11.5C12.6216 11.5 13.3571 12.2355 13.3571 13.1429H14.3571C14.3571 11.6832 13.1739 10.5 11.7143 10.5V11.5ZM10.4543 14.7857C9.66486 14.7857 8.94314 14.3397 8.59007 13.6335L7.69564 14.0808C8.2181 15.1257 9.28609 15.7857 10.4543 15.7857V14.7857ZM7.64286 8.85714C7.64286 10.3168 8.82611 11.5 10.2857 11.5V10.5C9.37839 10.5 8.64286 9.76447 8.64286 8.85714H7.64286ZM8.64286 8.85714C8.64286 7.94982 9.37839 7.21429 10.2857 7.21429V6.21429C8.82611 6.21429 7.64286 7.39753 7.64286 8.85714H8.64286ZM11.7143 14.7857H10.4543V15.7857H11.7143V14.7857ZM11.5457 6.21429H10.2857V7.21429H11.5457V6.21429Z" fill="#F2C94C"/>
</svg>
