<svg width="23" height="23" viewBox="0 0 23 23" fill="none" xmlns="http://www.w3.org/2000/svg">
<path d="M11.5 20.7L11.0681 20.9519C11.1577 21.1055 11.3222 21.2 11.5 21.2C11.6778 21.2 11.8423 21.1055 11.9319 20.9519L11.5 20.7ZM17.6333 2.29999L18.0675 2.54806C18.1559 2.39331 18.1552 2.20318 18.0658 2.04902C17.9763 1.89487 17.8116 1.79999 17.6333 1.79999V2.29999ZM11.5 13.0333L11.0659 13.2814C11.1549 13.4372 11.3206 13.5333 11.5 13.5333C11.6794 13.5333 11.8451 13.4372 11.9341 13.2814L11.5 13.0333ZM5.36666 2.29999V1.79999C5.18843 1.79999 5.02367 1.89487 4.93421 2.04902C4.84475 2.20318 4.84411 2.39331 4.93254 2.54806L5.36666 2.29999ZM9.96666 2.29999L10.4139 2.07638L10.2757 1.79999H9.96666V2.29999ZM11.5 5.36665L11.0528 5.59026C11.1375 5.75965 11.3106 5.86665 11.5 5.86665C11.6894 5.86665 11.8625 5.75965 11.9472 5.59026L11.5 5.36665ZM13.0333 2.29999V1.79999H12.7243L12.5861 2.07638L13.0333 2.29999ZM0.334773 2.55192L11.0681 20.9519L11.9319 20.4481L1.19855 2.04805L0.334773 2.55192ZM11.9319 20.9519L22.6652 2.55192L21.8014 2.04805L11.0681 20.4481L11.9319 20.9519ZM17.1992 2.05192L11.0659 12.7853L11.9341 13.2814L18.0675 2.54806L17.1992 2.05192ZM11.9341 12.7853L5.80078 2.05192L4.93254 2.54806L11.0659 13.2814L11.9341 12.7853ZM5.36666 2.79999H9.96666V1.79999H5.36666V2.79999ZM9.51945 2.52359L11.0528 5.59026L11.9472 5.14305L10.4139 2.07638L9.51945 2.52359ZM11.9472 5.59026L13.4805 2.52359L12.5861 2.07638L11.0528 5.14305L11.9472 5.59026ZM13.0333 2.79999H17.6333V1.79999H13.0333V2.79999Z" fill="#F2C94C"/>
</svg>
