<svg width="31" height="34" viewBox="0 0 31 34" fill="none" xmlns="http://www.w3.org/2000/svg">
<g filter="url(#filter0_d)">
<path d="M12.0406 24.6712C12.3044 24.5896 12.4521 24.3096 12.3705 24.0458C12.2889 23.782 12.0089 23.6343 11.7451 23.7159L12.0406 24.6712ZM4.87486 19.8384L4.3907 19.7136L4.14098 20.6819L4.62514 20.8067L4.87486 19.8384ZM19.2746 29.0323V29.5323H20.2746V29.0323H19.2746ZM18.9126 19.7177L18.8601 19.2205C18.6673 19.2409 18.5037 19.3707 18.4402 19.5538C18.3767 19.7369 18.4247 19.9403 18.5634 20.0756L18.9126 19.7177ZM25.686 12.4113H26.186L26.186 12.4096L25.686 12.4113ZM24.0443 8.52822L23.5794 8.34438C23.5056 8.53098 23.5505 8.74361 23.6934 8.88442L24.0443 8.52822ZM23.9458 4.62459L24.401 4.41765C24.34 4.28346 24.2228 4.18302 24.0809 4.14319L23.9458 4.62459ZM19.665 6.15725L19.541 6.64163C19.6746 6.67584 19.8164 6.65334 19.9329 6.57945L19.665 6.15725ZM12.0025 6.15725L11.7347 6.5795C11.8511 6.65335 11.9929 6.67583 12.1265 6.64163L12.0025 6.15725ZM7.72167 4.62459L7.58645 4.14322C7.44457 4.18308 7.3275 4.28349 7.26651 4.41765L7.72167 4.62459ZM7.62315 8.52822L7.97401 8.88445C8.11698 8.74364 8.16191 8.53099 8.08813 8.34438L7.62315 8.52822ZM5.98153 12.4427H6.48153L6.48153 12.4414L5.98153 12.4427ZM12.7549 19.7177L13.1047 20.075C13.2423 19.9403 13.2903 19.7385 13.2281 19.5563C13.1659 19.374 13.0046 19.2436 12.8133 19.2212L12.7549 19.7177ZM11.8929 22.2581H12.3929C12.3929 22.2456 12.3924 22.2332 12.3915 22.2208L11.8929 22.2581ZM11.3929 29.0323V29.5323H12.3929V29.0323H11.3929ZM11.7451 23.7159C10.4912 24.1038 9.62692 24.0815 9.00101 23.8786C8.37729 23.6764 7.92332 23.2734 7.52768 22.7668C7.32849 22.5118 7.14875 22.2366 6.96917 21.951C6.7941 21.6726 6.61198 21.3724 6.42579 21.1027C6.05845 20.5705 5.58918 20.0226 4.87486 19.8384L4.62514 20.8067C4.96624 20.8947 5.25774 21.1709 5.60284 21.6708C5.77287 21.9171 5.93488 22.1848 6.12265 22.4834C6.30591 22.7748 6.50772 23.0855 6.73956 23.3823C7.20599 23.9796 7.81205 24.5444 8.69264 24.8298C9.57105 25.1146 10.6553 25.0998 12.0406 24.6712L11.7451 23.7159ZM20.2746 22.1371C20.2746 21.5272 20.2455 21.0306 20.0937 20.5831C19.9361 20.1183 19.6628 19.7512 19.2617 19.3599L18.5634 20.0756C18.9 20.404 19.0577 20.6417 19.1467 20.9043C19.2416 21.1841 19.2746 21.5373 19.2746 22.1371H20.2746ZM18.9651 20.215C20.7132 20.0304 22.5313 19.6037 23.9121 18.4296C25.3163 17.2357 26.186 15.3425 26.186 12.4113H25.186C25.186 15.1341 24.3876 16.7127 23.2643 17.6678C22.1177 18.6427 20.5491 19.0422 18.8601 19.2205L18.9651 20.215ZM26.186 12.4096C26.1807 10.8187 25.5361 9.29588 24.3952 8.17202L23.6934 8.88442C24.6463 9.82303 25.1816 11.0913 25.186 12.4129L26.186 12.4096ZM24.5093 8.71207C24.781 8.02496 24.9114 7.29147 24.8928 6.5541L23.8931 6.57933C23.9083 7.18204 23.8017 7.78192 23.5794 8.34438L24.5093 8.71207ZM24.8928 6.5541C24.8742 5.81674 24.7069 5.09057 24.401 4.41765L23.4906 4.83154C23.7412 5.38259 23.8779 5.97662 23.8931 6.57933L24.8928 6.5541ZM23.9458 4.62459C24.0809 4.14319 24.0805 4.14306 24.08 4.14293C24.0798 4.14288 24.0793 4.14275 24.079 4.14266C24.0784 4.14248 24.0777 4.14229 24.077 4.1421C24.0756 4.14173 24.0741 4.14133 24.0726 4.14092C24.0695 4.1401 24.066 4.13922 24.0623 4.13828C24.0547 4.13642 24.0459 4.13435 24.0358 4.13217C24.0155 4.1278 23.9899 4.12297 23.9591 4.11831C23.8973 4.10898 23.8146 4.10042 23.7102 4.09768C23.5012 4.0922 23.2073 4.11012 22.8231 4.19075C22.0554 4.35185 20.9298 4.76268 19.3972 5.73506L19.9329 6.57945C21.388 5.65627 22.4027 5.30076 23.0285 5.16943C23.3411 5.10383 23.5572 5.09401 23.684 5.09734C23.7475 5.099 23.7891 5.10398 23.8098 5.1071C23.8201 5.10866 23.8253 5.10977 23.8254 5.10979C23.8254 5.1098 23.8242 5.10954 23.8218 5.10893C23.8205 5.10863 23.819 5.10824 23.8172 5.10775C23.8162 5.10751 23.8152 5.10724 23.8142 5.10695C23.8136 5.1068 23.8131 5.10665 23.8125 5.10649C23.8122 5.10641 23.8118 5.10629 23.8116 5.10625C23.8112 5.10612 23.8107 5.10599 23.9458 4.62459ZM19.789 5.67288C17.1955 5.00884 14.472 5.00884 11.8784 5.67288L12.1265 6.64163C14.5573 6.01925 17.1102 6.01925 19.541 6.64163L19.789 5.67288ZM12.2702 5.73501C10.7371 4.76267 9.61143 4.35185 8.84394 4.19075C8.45985 4.11013 8.16607 4.0922 7.95711 4.09768C7.85275 4.10042 7.77004 4.10899 7.70831 4.11832C7.67746 4.12298 7.65193 4.12782 7.63163 4.13219C7.62148 4.13438 7.61265 4.13644 7.60512 4.13831C7.60136 4.13924 7.59792 4.14013 7.59481 4.14095C7.59325 4.14136 7.59178 4.14176 7.59039 4.14214C7.58969 4.14233 7.58901 4.14251 7.58836 4.14269C7.58803 4.14278 7.58755 4.14292 7.58739 4.14296C7.58692 4.14309 7.58645 4.14322 7.72167 4.62459C7.8569 5.10596 7.85644 5.10609 7.85599 5.10621C7.85585 5.10625 7.8554 5.10638 7.85511 5.10646C7.85453 5.10662 7.85398 5.10677 7.85344 5.10692C7.85236 5.10721 7.85136 5.10748 7.85044 5.10772C7.84859 5.10821 7.84705 5.1086 7.84582 5.10891C7.84336 5.10952 7.84215 5.10978 7.84219 5.10977C7.84228 5.10975 7.84742 5.10865 7.85774 5.10709C7.87834 5.10397 7.9199 5.099 7.98335 5.09733C8.11002 5.09401 8.32602 5.10383 8.63851 5.16942C9.26419 5.30076 10.2789 5.65628 11.7347 6.5795L12.2702 5.73501ZM7.26651 4.41765C6.96056 5.09057 6.79332 5.81674 6.77471 6.5541L7.77439 6.57933C7.7896 5.97662 7.9263 5.38259 8.17684 4.83154L7.26651 4.41765ZM6.77471 6.5541C6.7561 7.29147 6.88651 8.02496 7.15818 8.71207L8.08813 8.34438C7.86574 7.78192 7.75918 7.18204 7.77439 6.57933L6.77471 6.5541ZM7.2723 8.17199C6.70317 8.73252 6.25173 9.39832 5.94426 10.1315L6.86645 10.5182C7.12238 9.90796 7.49859 9.35269 7.97401 8.88445L7.2723 8.17199ZM5.94426 10.1315C5.63679 10.8647 5.47946 11.6506 5.48153 12.444L6.48153 12.4414C6.47981 11.782 6.61053 11.1285 6.86645 10.5182L5.94426 10.1315ZM5.48153 12.4427C5.48153 15.355 6.35227 17.2302 7.75678 18.4157C9.13625 19.58 10.9526 20.0093 12.6966 20.2143L12.8133 19.2212C11.1201 19.0221 9.54971 18.6204 8.40178 17.6515C7.27889 16.7037 6.48153 15.1434 6.48153 12.4427H5.48153ZM12.4052 19.3604C11.5452 20.2023 11.3125 21.2019 11.3942 22.2953L12.3915 22.2208C12.3254 21.3376 12.509 20.6582 13.1047 20.075L12.4052 19.3604ZM11.3929 22.2581V29.0323H12.3929V22.2581H11.3929ZM20.2746 29.0323V22.1371H19.2746V29.0323H20.2746Z" fill="#F2C94C"/>
</g>
<defs>
<filter id="filter0_d" x="0.140991" y="0.0967712" width="30.045" height="33.4355" filterUnits="userSpaceOnUse" color-interpolation-filters="sRGB">
<feFlood flood-opacity="0" result="BackgroundImageFix"/>
<feColorMatrix in="SourceAlpha" type="matrix" values="0 0 0 0 0 0 0 0 0 0 0 0 0 0 0 0 0 0 127 0"/>
<feOffset/>
<feGaussianBlur stdDeviation="2"/>
<feColorMatrix type="matrix" values="0 0 0 0 0.94902 0 0 0 0 0.788235 0 0 0 0 0.298039 0 0 0 1 0"/>
<feBlend mode="normal" in2="BackgroundImageFix" result="effect1_dropShadow"/>
<feBlend mode="normal" in="SourceGraphic" in2="effect1_dropShadow" result="shape"/>
</filter>
</defs>
</svg>
